<svg width="46" height="49" viewBox="0 0 46 49" fill="none" xmlns="http://www.w3.org/2000/svg">
<path d="M23.01 2C21.26 4.62 9.58 10 5 10C5 18.73 5 21.48 5 29C5 37.93 22 47.71 23 47.99C24 47.71 41 37.25 41 30C41 22.48 41 18.73 41 10C36 10 24.76 4.62 23.01 2Z" stroke="#404145" stroke-width="1.5" stroke-miterlimit="10"/>
<path d="M14 13H18V15H21V13H25V15H28V13H32V19L28 22.5V29L32 31V36H14V31L18 29V22.5L14 19V13Z" fill="#A6EACA"/>
<path d="M18.05 15V13H14V18C14 18.31 14.14 19.12 14.38 19.32L18 22V29" stroke="#404145" stroke-width="1.5" stroke-miterlimit="10"/>
<path d="M28 15V13H32V18C32 18.31 31.86 19.12 31.62 19.32L28 22.38V29" stroke="#404145" stroke-width="1.5" stroke-miterlimit="10"/>
<path d="M22 17H17" stroke="#404145" stroke-width="1.5" stroke-miterlimit="10"/>
<path d="M29 17H24" stroke="#404145" stroke-width="1.5" stroke-miterlimit="10"/>
<path d="M25 15V13H21V15" stroke="#404145" stroke-width="1.5" stroke-miterlimit="10"/>
<path d="M22 30H16C14.9 30 14 30.9 14 32V36H32V32C32 30.9 31.1 30 30 30H26.08" stroke="#404145" stroke-width="1.5" stroke-miterlimit="10"/>
</svg>
