<svg width="48" height="46" viewBox="0 0 48 46" fill="none" xmlns="http://www.w3.org/2000/svg">
<path d="M45 43H11C9.9 43 9 42.1 9 41V38H24L25 39H31L32 38H47V41C47 42.1 46.1 43 45 43Z" fill="#A6EACA" stroke="#404145" stroke-width="1.5" stroke-miterlimit="10" stroke-linejoin="round"/>
<path d="M26 16H42C43.1 16 44 16.9 44 18V38" stroke="#404145" stroke-width="1.5" stroke-miterlimit="10" stroke-linejoin="round"/>
<path d="M12 38V18C12 16.9 12.9 16 14 16H20" stroke="#404145" stroke-width="1.5" stroke-miterlimit="10" stroke-linejoin="round"/>
<path d="M10 29H3C1.9 29 1 28.1 1 27V24H10" fill="#A6EACA"/>
<path d="M10 29H3C1.9 29 1 28.1 1 27V24H10" stroke="#404145" stroke-width="1.5" stroke-miterlimit="10" stroke-linejoin="round"/>
<path d="M4 24V4C4 2.9 4.9 2 6 2H34C35.1 2 36 2.9 36 4V14" stroke="#404145" stroke-width="1.5" stroke-miterlimit="10" stroke-linejoin="round"/>
<path d="M26 12L23 9L20 12" stroke="#404145" stroke-width="1.5" stroke-miterlimit="10" stroke-linejoin="round"/>
<path d="M26 20L23 23L20 20" stroke="#404145" stroke-width="1.5" stroke-miterlimit="10" stroke-linejoin="round"/>
<path d="M23 9V23" stroke="#404145" stroke-width="1.5" stroke-miterlimit="10" stroke-linejoin="round"/>
</svg>
