<svg width="46" height="46" viewBox="0 0 46 46" fill="none" xmlns="http://www.w3.org/2000/svg"><path d="M25.532 46c10.587 0 19.17-8.582 19.17-19.169S36.118 7.662 25.531 7.662 6.362 16.244 6.362 26.832C6.363 37.417 14.945 46 25.533 46z" fill="#E4E5E7"/><path d="M17.102 33.205c8.893 0 16.103-7.21 16.103-16.103S25.995 1 17.102 1 1 8.21 1 17.102c0 8.893 7.21 16.103 16.102 16.103z" fill="#fff" stroke="#404145" stroke-width="1.5" stroke-miterlimit="10" stroke-linecap="round"/><path d="M29.44 33.518L39.482 43.56c.586.587 1.466.587 2.052 0l1.026-1.026c.587-.586.587-1.466 0-2.052L32.518 30.44c-.586-.587-1.466-.587-2.052 0l-1.026 1.026c-.587.586-.587 1.466 0 2.052z" fill="#A6EACA" stroke="#404145" stroke-width="1.5" stroke-miterlimit="10" stroke-linecap="round" stroke-linejoin="round"/><path d="M29.753 30.52l-1.687-1.686" stroke="#404145" stroke-width="1.5" stroke-miterlimit="10" stroke-linecap="round"/><path d="M38.57 21.703v1.534m0 1.533v1.534m-.767-2.301H36.27m4.6 0h-1.533m3.6 4.601v1.533m0 1.533v1.534m-.767-2.3h-1.533m4.6 0h-1.533m-24.302 5.368v1.533m0 1.534v1.533m-.767-2.3h-1.533m4.6 0H20.17" stroke="#C5C6C9" stroke-width="1.5" stroke-miterlimit="10"/><path d="M5.867 12.152C7.24 8.757 10.057 6.084 13.597 5M5 16.703c0-.65.072-1.3.144-1.95" stroke="#404145" stroke-width="1.5" stroke-miterlimit="10" stroke-linecap="round"/></svg>