<svg width="46" height="46" viewBox="0 0 46 46" fill="none" xmlns="http://www.w3.org/2000/svg"><path fill="#A6EACA" d="M32 4h6v12h-6zM3 4h6v30H3z"/><path d="M9 38V0m23 0v21M3 0v38M38 0v19M3 4h6m-6 6h6m-6 6h6m-6 6h6m-6 6h6m-6 6h6M32 4h6m-6 6h6m-6 6h6M9 7h23M9 31h16" stroke="#404145" stroke-width="1.5" stroke-miterlimit="10" stroke-linejoin="round"/><path d="M28 41.26c0 1.6-1.57 3.24-3.5 3.65-1.93.41-3.5-.56-3.5-2.16s1.57-3.24 3.5-3.65c1.93-.42 3.5.55 3.5 2.16zm14-5c0 1.6-1.57 3.24-3.5 3.65-1.93.41-3.5-.56-3.5-2.16s1.57-3.24 3.5-3.65c1.93-.42 3.5.55 3.5 2.16z" stroke="#404145" stroke-width="1.5" stroke-miterlimit="10"/><path d="M42 36V20l-14 5v16m14-16l-14 5" stroke="#404145" stroke-width="1.5" stroke-miterlimit="10" stroke-linejoin="round"/></svg>