<?xml version="1.0" encoding="UTF-8"?>
<svg xmlns="http://www.w3.org/2000/svg" xmlns:xlink="http://www.w3.org/1999/xlink" width="150px" height="150px" viewBox="0 0 150 150" version="1.1">
<g id="surface1">
<path style="fill:none;stroke-width:12.6;stroke-linecap:round;stroke-linejoin:round;stroke:rgb(0%,0%,0%);stroke-opacity:1;stroke-miterlimit:4;" d="M 302.174479 410.286458 L 282.226562 393.125 L 274.635417 364.075521 L 225.364583 364.075521 L 217.773438 393.125 L 197.825521 410.286458 Z M 302.174479 410.286458 " transform="matrix(0.3,0,0,0.3,0,0)"/>
<path style="fill:none;stroke-width:12.6;stroke-linecap:round;stroke-linejoin:round;stroke:rgb(7.058824%,7.45098%,18.823529%);stroke-opacity:1;stroke-miterlimit:4;" d="M 412.096354 305.15625 L 87.903646 305.15625 L 87.903646 116.080729 L 412.096354 116.080729 Z M 418.567708 364.166667 L 81.432292 364.166667 C 70.703125 364.166667 62.005208 355.46875 62.005208 344.739583 L 62.005208 109.596354 C 62.005208 98.867188 70.703125 90.169271 81.432292 90.169271 L 418.567708 90.169271 C 429.296875 90.169271 437.994792 98.867188 437.994792 109.596354 L 437.994792 344.739583 C 437.994792 355.46875 429.296875 364.166667 418.567708 364.166667 Z M 418.567708 364.166667 " transform="matrix(0.3,0,0,0.3,0,0)"/>
<path style=" stroke:none;fill-rule:nonzero;fill:rgb(0%,0%,0%);fill-opacity:1;" d="M 78.464844 100.429688 C 78.464844 102.34375 76.914062 103.894531 75 103.894531 C 73.085938 103.894531 71.535156 102.34375 71.535156 100.429688 C 71.535156 98.515625 73.085938 96.964844 75 96.964844 C 76.914062 96.964844 78.464844 98.515625 78.464844 100.429688 Z M 78.464844 100.429688 "/>
</g>
</svg>
