<svg width="47" height="46" viewBox="0 0 47 46" fill="none" xmlns="http://www.w3.org/2000/svg">
<path d="M33 12V2H1V45H33V35" stroke="#404145" stroke-width="1.5" stroke-miterlimit="10"/>
<path d="M22.2813 35.5998C20.6213 32.8998 21.1213 27.9898 21.7113 26.1998L23.3613 25.7998C23.3613 25.7998 22.9413 23.3098 24.8313 20.8998C27.1013 17.9998 33.5613 12.2398 46.0113 11.5498C41.4613 16.6198 38.2213 25.2598 37.4113 26.5298C35.7213 27.6798 34.0713 28.4598 34.0713 28.4598L35.5713 29.9198C35.5613 29.9198 27.3513 36.9798 22.2813 35.5998Z" fill="#A6EACA" stroke="#404145" stroke-width="1.5" stroke-miterlimit="10" stroke-linejoin="round"/>
<path d="M36.321 18.71C26.831 25.9 21.9209 35.01 19.9609 40.99" stroke="#404145" stroke-width="1.5" stroke-miterlimit="10" stroke-linecap="round"/>
<path d="M1 8H33" stroke="#404145" stroke-width="1.5" stroke-miterlimit="10"/>
<path d="M4 5H6" stroke="#404145" stroke-width="1.5" stroke-miterlimit="10"/>
<path d="M8 5H10" stroke="#404145" stroke-width="1.5" stroke-miterlimit="10"/>
<path d="M12 5H14" stroke="#404145" stroke-width="1.5" stroke-miterlimit="10"/>
<path d="M16 12H5V22H16V12Z" fill="#A6EACA" stroke="#404145" stroke-width="1.5" stroke-miterlimit="10"/>
<path d="M19 13H29" stroke="#404145" stroke-width="1.5" stroke-miterlimit="10"/>
<path d="M19 18H23" stroke="#404145" stroke-width="1.5" stroke-miterlimit="10"/>
<path d="M4 27H17" stroke="#404145" stroke-width="1.5" stroke-miterlimit="10"/>
<path d="M4 32H17" stroke="#404145" stroke-width="1.5" stroke-miterlimit="10"/>
<path d="M4 37H17" stroke="#404145" stroke-width="1.5" stroke-miterlimit="10"/>
</svg>
