<svg id="Layer_1" data-name="Layer 1" xmlns="http://www.w3.org/2000/svg" viewBox="0 0 46 46"><defs><style>.cls-1{fill:none;}.cls-1,.cls-2{stroke:#404145;stroke-miterlimit:10;stroke-width:1.5px;}.cls-2{fill:#a6eaca;}</style></defs><line class="cls-1" x1="32" y1="21.6" x2="29.78" y2="21.61"/><line class="cls-1" x1="25.37" y1="21.63" x2="23.15" y2="21.64"/><line class="cls-1" x1="27.6" y1="26.04" x2="27.59" y2="23.82"/><line class="cls-1" x1="27.57" y1="19.41" x2="27.56" y2="17.19"/><line class="cls-1" x1="14.44" y1="8.06" x2="12.66" y2="8.06"/><line class="cls-1" x1="9.11" y1="8.08" x2="7.33" y2="8.09"/><line class="cls-1" x1="10.9" y1="11.63" x2="10.89" y2="9.85"/><line class="cls-1" x1="10.88" y1="6.3" x2="10.87" y2="4.52"/><path class="cls-1" d="M2,20.46s-2.5-6.77,5.21-6.54c5.91,0,17.2,6.35,16.77.31-.23-3.33-7.9-5.23-9.4-.94"/><path class="cls-1" d="M13.35,17.28s-.55,1.84-1,8.89c-.3,5.33-.36,9-4.49,9.71-4.37.77-6.84-5-3.68-7.39,1.28-1,3.7-.91,3.79,1.47a3.22,3.22,0,0,1-1.48,2.68h0"/><path class="cls-1" d="M17.54,24.29s-1.76,9.22,1.6,9c3.57-.18,2.81-9,2.81-9"/><path class="cls-1" d="M22,24.29s3.36,20-2.37,20c-3.33,0-3.86-8.39,6-8.39h4.79"/><path class="cls-2" d="M35.22,34.1l-1.57,1.65a.58.58,0,0,1-1-.27l-.49-2.23a7.36,7.36,0,0,1,.1-3.52L39.61,3.45a2.43,2.43,0,0,1,3-1.69h0a2.44,2.44,0,0,1,1.69,3L37,31A7.25,7.25,0,0,1,35.22,34.1Z"/></svg>